<svg xmlns="http://www.w3.org/2000/svg" xmlns:xlink="http://www.w3.org/1999/xlink" width="327" height="83.546" viewBox="0 0 327 83.546">
  <defs>
    <clipPath id="clip-path">
      <rect id="長方形_994" data-name="長方形 994" width="255" height="39" fill="#fff"/>
    </clipPath>
    <linearGradient id="linear-gradient" x1="0.084" y1="1.024" x2="0.881" y2="-0.034" gradientUnits="objectBoundingBox">
      <stop offset="0.08" stop-color="#9945ff"/>
      <stop offset="0.3" stop-color="#8752f3"/>
      <stop offset="0.5" stop-color="#5497d5"/>
      <stop offset="0.6" stop-color="#43b4ca"/>
      <stop offset="0.72" stop-color="#28e0b9"/>
      <stop offset="0.97" stop-color="#19fb9b"/>
    </linearGradient>
  </defs>
  <g id="グループ_324" data-name="グループ 324" transform="translate(-536.5 -492.454)">
    <g id="グループ_323" data-name="グループ 323" transform="translate(146.5 -18)">
      <g id="solanaWordMark" transform="translate(462 552)" clip-path="url(#clip-path)">
        <path id="パス_14277" data-name="パス 14277" d="M36.562,7.99V.236H7.334A7.626,7.626,0,0,0,1.924,2.491,7.722,7.722,0,0,0-.316,7.934V15.8a7.722,7.722,0,0,0,2.241,5.443A7.626,7.626,0,0,0,7.334,23.5H30.5v7.749H.234V39H30.559a7.627,7.627,0,0,0,5.409-2.255A7.722,7.722,0,0,0,38.209,31.3V23.441A7.722,7.722,0,0,0,35.968,18a7.626,7.626,0,0,0-5.409-2.255H7.39V7.99Z" fill="#9945ff"/>
        <path id="パス_14278" data-name="パス 14278" d="M44.522,7.934V31.3a7.722,7.722,0,0,0,2.241,5.443A7.626,7.626,0,0,0,52.173,39H75.4a7.626,7.626,0,0,0,5.409-2.255A7.722,7.722,0,0,0,83.048,31.3V7.934a7.721,7.721,0,0,0-2.241-5.443A7.626,7.626,0,0,0,75.4.236H52.173a7.626,7.626,0,0,0-5.409,2.255A7.721,7.721,0,0,0,44.522,7.934ZM75.342,31.247H52.213V7.99H75.326Z" fill="#9945ff"/>
        <path id="パス_14279" data-name="パス 14279" d="M126.479,7.934V39h7.707V26.264h22.572V39h7.7V7.934a7.724,7.724,0,0,0-2.24-5.443,7.628,7.628,0,0,0-5.41-2.255h-22.68a7.628,7.628,0,0,0-5.409,2.255A7.72,7.72,0,0,0,126.479,7.934ZM156.758,18.51H134.191V7.99h22.572Z" fill="#9945ff"/>
        <path id="パス_14280" data-name="パス 14280" d="M216.709,7.934V39H224.4V26.264h22.567V39h7.706V7.934a7.724,7.724,0,0,0-2.24-5.443,7.628,7.628,0,0,0-5.41-2.255H224.359a7.624,7.624,0,0,0-5.409,2.255A7.72,7.72,0,0,0,216.709,7.934ZM246.977,18.51H224.4V7.99h22.567Z" fill="#9945ff"/>
        <path id="パス_14281" data-name="パス 14281" d="M202.154.236v31.01h-3.06L188.017,3.464a5.136,5.136,0,0,0-1.875-2.344,5.078,5.078,0,0,0-2.858-.884h-6.86a5.084,5.084,0,0,0-3.606,1.5,5.15,5.15,0,0,0-1.494,3.629V39h7.686V7.99H182.1l11.047,27.787A5.1,5.1,0,0,0,197.88,39h6.859a5.086,5.086,0,0,0,3.607-1.5,5.149,5.149,0,0,0,1.493-3.629V.236Z" fill="#9945ff"/>
        <path id="パス_14282" data-name="パス 14282" d="M97.6,31.247V.236h-7.7V31.3a7.722,7.722,0,0,0,2.241,5.443A7.627,7.627,0,0,0,97.558,39h23.169V31.247Z" fill="#9945ff"/>
      </g>
      <path id="solanaLogoMark_1_" data-name="solanaLogoMark (1)" d="M51.377,35.476l-8.525,8.907a1.98,1.98,0,0,1-.659.453,2.024,2.024,0,0,1-.79.16H.99a1.009,1.009,0,0,1-.543-.158.971.971,0,0,1-.365-.422.941.941,0,0,1-.068-.548.955.955,0,0,1,.252-.494L8.8,34.467a1.98,1.98,0,0,1,.657-.452,2.024,2.024,0,0,1,.787-.16H50.653a1.01,1.01,0,0,1,.543.158.975.975,0,0,1,.365.422.942.942,0,0,1,.067.548A.956.956,0,0,1,51.377,35.476ZM42.851,17.54a1.98,1.98,0,0,0-.659-.453,2.025,2.025,0,0,0-.79-.16H.99a1.009,1.009,0,0,0-.543.158.971.971,0,0,0-.365.422.942.942,0,0,0-.068.548.955.955,0,0,0,.252.494L8.8,27.456a1.981,1.981,0,0,0,.657.452,2.024,2.024,0,0,0,.787.16H50.653a1.009,1.009,0,0,0,.543-.158.975.975,0,0,0,.365-.422.943.943,0,0,0,.067-.548.956.956,0,0,0-.252-.494ZM.99,11.142H41.4a2.025,2.025,0,0,0,.79-.16,1.98,1.98,0,0,0,.659-.453l8.525-8.907a.956.956,0,0,0,.252-.494A.942.942,0,0,0,51.561.58.975.975,0,0,0,51.2.158,1.009,1.009,0,0,0,50.653,0H10.242a2.025,2.025,0,0,0-.787.16A1.98,1.98,0,0,0,8.8.613L.268,9.52a.955.955,0,0,0-.252.494.941.941,0,0,0,.067.547.971.971,0,0,0,.364.422A1.009,1.009,0,0,0,.99,11.142Z" transform="translate(390 549.005)" fill="url(#linear-gradient)"/>
    </g>
    <path id="パス_14283" data-name="パス 14283" d="M2.457,0h4V-7.1H9.126c4.293,0,7.722-2.052,7.722-6.615,0-4.725-3.4-6.264-7.83-6.264H2.457Zm4-10.26v-6.561H8.721c2.754,0,4.212.783,4.212,3.105,0,2.3-1.323,3.456-4.077,3.456ZM28.485.378c3.78,0,7.263-2.916,7.263-7.911,0-5.049-3.483-7.965-7.263-7.965s-7.263,2.916-7.263,7.965C21.222-2.538,24.7.378,28.485.378Zm0-3.24c-2.052,0-3.213-1.836-3.213-4.671,0-2.862,1.161-4.725,3.213-4.725S31.7-10.395,31.7-7.533C31.7-4.7,30.537-2.862,28.485-2.862ZM44.064,0H48.6l1.539-6.588c.324-1.4.54-2.808.837-4.4h.135c.3,1.593.54,2.97.864,4.4L53.568,0h4.671l3.726-15.12H58.293L56.646-7.641c-.3,1.458-.486,2.916-.756,4.4h-.135c-.324-1.485-.594-2.943-.945-4.4L52.92-15.12H49.383L47.574-7.641c-.378,1.431-.648,2.916-.945,4.4h-.108c-.27-1.485-.459-2.943-.756-4.4L44.118-15.12H40.149ZM73.9.378A9.538,9.538,0,0,0,79.191-1.3l-1.35-2.43a6.232,6.232,0,0,1-3.4,1.053,3.973,3.973,0,0,1-4.185-3.78h9.315a7.376,7.376,0,0,0,.189-1.809c0-4.185-2.16-7.236-6.318-7.236-3.618,0-7.047,3.051-7.047,7.965C66.393-2.565,69.687.378,73.9.378Zm-3.7-9.45c.3-2.214,1.7-3.348,3.294-3.348,1.944,0,2.862,1.3,2.862,3.348ZM85.725,0h3.942V-9.018c.864-2.187,2.3-2.97,3.483-2.97a4.765,4.765,0,0,1,1.566.243l.7-3.429a4.277,4.277,0,0,0-1.782-.324c-1.566,0-3.186,1.08-4.293,3.051h-.108l-.27-2.673h-3.24Zm20.709.378A9.538,9.538,0,0,0,111.726-1.3l-1.35-2.43a6.232,6.232,0,0,1-3.4,1.053,3.973,3.973,0,0,1-4.185-3.78H112.1a7.376,7.376,0,0,0,.189-1.809c0-4.185-2.16-7.236-6.318-7.236-3.618,0-7.047,3.051-7.047,7.965C98.928-2.565,102.222.378,106.434.378Zm-3.7-9.45c.3-2.214,1.7-3.348,3.294-3.348,1.944,0,2.862,1.3,2.862,3.348ZM123.579.378a6.271,6.271,0,0,0,4.185-1.944h.081L128.169,0h3.213V-21.546h-3.969v5.319l.162,2.376a5.2,5.2,0,0,0-3.834-1.647c-3.267,0-6.345,3.024-6.345,7.965S119.826.378,123.579.378ZM124.6-2.889c-2,0-3.132-1.566-3.132-4.7,0-3.024,1.431-4.644,3.132-4.644a4.017,4.017,0,0,1,2.808,1.134v6.642A3.363,3.363,0,0,1,124.6-2.889ZM154.764.378c3.321,0,6.426-3,6.426-8.208,0-4.617-2.241-7.668-5.967-7.668a6.451,6.451,0,0,0-4.185,1.809l.081-2.43v-5.427h-3.942V0h3.105l.351-1.593h.081A5.883,5.883,0,0,0,154.764.378Zm-.891-3.267a4.18,4.18,0,0,1-2.754-1.134v-6.642a4.263,4.263,0,0,1,3-1.566c2.079,0,3,1.593,3,4.482C157.113-4.455,155.709-2.889,153.873-2.889Zm14.5,8.964c3.375,0,5-2.052,6.318-5.616l5.373-15.579h-3.807L174.177-8.1c-.351,1.4-.729,2.862-1.08,4.266h-.135c-.432-1.458-.81-2.916-1.269-4.266l-2.4-7.02h-4L171.18-.27l-.27.891a2.894,2.894,0,0,1-2.835,2.3,4.066,4.066,0,0,1-1.053-.189l-.729,3.051A6.4,6.4,0,0,0,168.372,6.075Z" transform="translate(610 514)" fill="#585858"/>
  </g>
</svg>
