<svg xmlns="http://www.w3.org/2000/svg" width="44.369" height="44.239" viewBox="0 0 44.369 44.239">
  <g id="cog_icon_125323" transform="matrix(1, 0.017, -0.017, 1, 253.507, -367.245)">
    <path id="Path_14272" data-name="Path 14272" d="M-202.86,389.807a2.489,2.489,0,0,0-2.386-1.812h-2.828a17.138,17.138,0,0,0-1.016-2.475l2.165-2.165a2.243,2.243,0,0,0,.663-1.591,2.243,2.243,0,0,0-.663-1.591l-4.419-4.419a2.294,2.294,0,0,0-3.226,0l-2.21,2.21a17.023,17.023,0,0,0-2.475-.972v-2.917a2.471,2.471,0,0,0-2.475-2.475h-5.656a2.471,2.471,0,0,0-2.475,2.475v2.917a16.628,16.628,0,0,0-2.431,1.016l-2.21-2.254a2.24,2.24,0,0,0-3.182,0l-4.419,4.419a2.243,2.243,0,0,0-.663,1.591,2.243,2.243,0,0,0,.663,1.591l2.121,2.121A17.137,17.137,0,0,0-241,387.951h-2.828a2.471,2.471,0,0,0-2.475,2.475v5.745a2.471,2.471,0,0,0,2.475,2.475h2.872a20.022,20.022,0,0,0,1.016,2.519l-2.165,2.165a2.243,2.243,0,0,0-.663,1.591,2.165,2.165,0,0,0,.707,1.635l4.375,4.375a2.313,2.313,0,0,0,3.138.044l2.165-2.165a13.514,13.514,0,0,0,2.563,1.061v2.74a2.471,2.471,0,0,0,2.475,2.475h5.745a2.471,2.471,0,0,0,2.475-2.475v-2.74a22.1,22.1,0,0,0,2.563-1.016l2.121,2.121a2.243,2.243,0,0,0,1.591.663,2.243,2.243,0,0,0,1.591-.663l4.419-4.419a2.243,2.243,0,0,0,.663-1.591,2.243,2.243,0,0,0-.663-1.591L-209,401.208a13.029,13.029,0,0,0,1.016-2.519h2.828a2.471,2.471,0,0,0,2.475-2.475v-6.187Zm-1.989,6.408a.255.255,0,0,1-.265.265h-4.11l-.619.619-.088.309a13.054,13.054,0,0,1-1.37,3.4l-.133.265v.265a1.426,1.426,0,0,0,.354.928l2.651,2.651c.044.044.044.044,0,.088l-4.419,4.419h-.088l-3.005-3.005h-.442a1.515,1.515,0,0,0-.707.177,18.049,18.049,0,0,1-3.359,1.37,1.5,1.5,0,0,0-.619.354l-.309.309v3.977a.255.255,0,0,1-.265.265h-5.745a.255.255,0,0,1-.265-.265v-3.977l-.619-.619-.309-.088a12.087,12.087,0,0,1-2.917-1.1v-.088l-.663-.265a1.079,1.079,0,0,0-1.237.265l-2.651,2.651c-.044,0-.088.044-.133.044l-4.463-4.463a.043.043,0,0,1,.044-.044l3.049-3.049v-.442a1.335,1.335,0,0,0-.221-.707,18.891,18.891,0,0,1-1.37-3.4l-.088-.265-.574-.574h-4.11a.255.255,0,0,1-.265-.265V390.47a.255.255,0,0,1,.265-.265h4.11l.574-.574.088-.309a15.342,15.342,0,0,1,1.1-2.872h.133l.265-.663a1.079,1.079,0,0,0-.265-1.237l-2.74-2.74v-.088l4.419-4.419c.044-.044.044-.044.088,0l3.093,3.138h.442a1.223,1.223,0,0,0,.707-.221,13.412,13.412,0,0,1,3.226-1.326l.309-.088.574-.574v-4.154a.255.255,0,0,1,.265-.265h5.656a.255.255,0,0,1,.265.265v4.154l.574.574.265.088a17.4,17.4,0,0,1,3.4,1.37l.265.133h.309a1.342,1.342,0,0,0,.928-.354l2.74-2.74c.044-.044.044-.044.088,0l4.419,4.419v.088l-3.049,3.049v.442a1.247,1.247,0,0,0,.177.663l.044.044a12.679,12.679,0,0,1,1.37,3.314l.088.309.574.574h4.11c.133,0,.265.221.309.354l.044.354.044.044v5.259Z" transform="translate(0 0)"/>
    <path id="Path_14273" data-name="Path 14273" d="M-207.625,400.9h-.574a8.96,8.96,0,0,0-6.319,2.563,8.762,8.762,0,0,0-2.607,6.85,9.044,9.044,0,0,0,8.308,8.308h.619a8.688,8.688,0,0,0,6.231-2.607h0a9.277,9.277,0,0,0,2.607-6.85A8.923,8.923,0,0,0-207.625,400.9Zm4.11,13.611a6.589,6.589,0,0,1-5.126,1.944,6.858,6.858,0,0,1-6.275-6.275,6.473,6.473,0,0,1,1.944-5.126,6.57,6.57,0,0,1,4.773-1.944h.486a6.811,6.811,0,0,1,6.231,6.231A7.238,7.238,0,0,1-203.515,414.511Z" transform="translate(-16.27 -16.352)"/>
  </g>
</svg>
