<svg xmlns="http://www.w3.org/2000/svg" width="219.126" height="200.826" viewBox="0 0 219.126 200.826">
  <g id="_10_Network_protection" data-name="10 Network protection" transform="translate(-2.057 -4.011)">
    <path id="Path_234" data-name="Path 234" d="M199.155,102.588a100.585,100.585,0,0,1-64.214,92.471A100.113,100.113,0,0,1,26.5,167.8C-1.938,136.3-5.752,87.194,16.252,51.177a100.186,100.186,0,0,1,102.969-45.5,99.049,99.049,0,0,1,79.934,96.913Z" transform="translate(0.095 0.084)" fill="#262626"/>
    <path id="Path_235" data-name="Path 235" d="M199.14,99.016H154.323a131.39,131.39,0,0,0-11.15-44.379A255.5,255.5,0,0,0,179.035,43.2c-1.5-1.974-3.071-3.875-4.679-5.739A177.077,177.077,0,0,1,139.993,47.8,187.274,187.274,0,0,0,109.834,4.446q-2.248-.219-4.5-.329a92.332,92.332,0,0,0-9.541.037c-1.682.073-3.363.219-5.045.4A161.642,161.642,0,0,0,59.094,46.96a183.336,183.336,0,0,1-32.5-9.5c-1.133,1.243-2.23,2.559-3.29,3.875-.4.475-.768.987-1.133,1.5-.183.329.037.658.8,1.024a182.838,182.838,0,0,0,32.974,9.87A113.756,113.756,0,0,0,46.519,98.87v.146H2.14c-.11,2.413-.11,4.862,0,7.311H46.775a131.39,131.39,0,0,0,11.15,44.379c-11.369,2.34-30.305,7.9-35.971,11.552h-.037a13.784,13.784,0,0,0,.914,1.133c.4.548.841,1.1,1.279,1.608a5.98,5.98,0,0,0,.768.914c.548.658,1.133,1.316,1.718,1.974h.037A179.846,179.846,0,0,1,61.1,157.543a186.6,186.6,0,0,0,30.049,43.246c3.29.366,6.69.548,10.053.585h.073c.475-.037.877-.073,1.279-.073,2.559-.036,5.191-.146,7.713-.439a163.528,163.528,0,0,0,30.488-40.1c.439-.768.841-1.572,1.243-2.376a177.344,177.344,0,0,1,32.352,9.431c.037.037.11.037.146.073a47.161,47.161,0,0,0,3.107-3.656c.548-.658,1.1-1.316,1.572-2.011-.073-.037-.11-.11-.183-.146a21.741,21.741,0,0,0-6.215-2.669c-2.413-.877-5.666-1.974-9.578-3.18q-1.974-.6-4.167-1.206c-4.569-1.316-9.212-2.522-13.891-3.4,1.06-2.486,2.047-5.008,2.924-7.531a111.619,111.619,0,0,0,5.264-20.91c.366-2.559.695-5.154.841-7.75.292-2.961.4-5.959.4-8.956v-.146H199.14c.073-1.243.11-2.449.11-3.656S199.214,100.259,199.14,99.016ZM96.893,196.146A184.549,184.549,0,0,1,68.782,156.19a195.144,195.144,0,0,1,28.112-2.266Zm0-49.5a199.283,199.283,0,0,0-31.438,2.705,125.54,125.54,0,0,1-11.369-43.026H96.893Zm0-47.633H53.83V98.87A106.89,106.89,0,0,1,63.3,55.186a227.719,227.719,0,0,0,33.6,3.436Zm0-47.669a215.02,215.02,0,0,1-30.268-2.961A156.728,156.728,0,0,1,96.893,8.759ZM104.2,9.2a184.548,184.548,0,0,1,28.112,39.956A195.146,195.146,0,0,1,104.2,51.42Zm0,49.5a198.917,198.917,0,0,0,31.438-2.705,125.541,125.541,0,0,1,11.369,43.026H104.2Zm0,137.89V154a215.018,215.018,0,0,1,30.268,2.961A156.728,156.728,0,0,1,104.2,196.585Zm43.063-90.111a97.091,97.091,0,0,1-.585,10.821,103.683,103.683,0,0,1-5.922,25.443c-.877,2.486-1.864,4.935-2.961,7.421a227.717,227.717,0,0,0-33.6-3.436V106.328h43.063Z" transform="translate(0 0)" fill="#f3f2ef"/>
    <path id="Path_236" data-name="Path 236" d="M117.718,40.621c-.658-.183-10.163-2.669-19.813-4.752A107.389,107.389,0,0,0,80.212,33.2a163.153,163.153,0,0,0-26.8,4.716c-2.961.731-5.593,1.389-7.494,1.864C43.456,40.421,40,40.865,40,44.167V98.124c0,6.426,4.961,9.145,9.724,12.1L75.313,126.2a11.24,11.24,0,0,0,10.089-.146l29.135-18.2a10.928,10.928,0,0,0,5.886-9.724V44.167A3.643,3.643,0,0,0,117.718,40.621Z" transform="translate(100.76 77.514)" fill="#f3f2ef"/>
    <path id="Path_237" data-name="Path 237" d="M98.785,41.968a173.429,173.429,0,0,0-26.54-5.228,171.015,171.015,0,0,0-26.54,5.228A3.675,3.675,0,0,0,43,45.513v37.8a8.638,8.638,0,0,0,4.533,7.677l20.8,12.941a9.043,9.043,0,0,0,8.152-.146L96.811,91.062a8.76,8.76,0,0,0,4.679-7.75v-37.8a3.675,3.675,0,0,0-2.705-3.546Z" transform="translate(108.727 86.915)" fill="#262626"/>
    <path id="Path_238" data-name="Path 238" d="M82.1,46.375,67.473,75.62a3.663,3.663,0,0,1-5.849.95L47,61.948a3.66,3.66,0,0,1,5.191-5.154l11.04,11.04L75.588,43.121A3.639,3.639,0,0,1,82.1,46.375Z" transform="translate(116.753 98.775)" fill="#e9e9ff"/>
  </g>
</svg>
