<svg xmlns="http://www.w3.org/2000/svg" width="191.925" height="154.704" viewBox="0 0 191.925 154.704">
  <g id="Group_38" data-name="Group 38" transform="translate(-1 -7.024)">
    <path id="Path_231" data-name="Path 231" d="M79.318,68.861h30.027a8.019,8.019,0,0,1,6.5,2.786L162.9,118.39a3.236,3.236,0,0,0,3.405.619,2.975,2.975,0,0,0,1.857-2.786v-6.81a9.679,9.679,0,0,1,7.429-9.6,9.275,9.275,0,0,1,11.144,8.977,3.1,3.1,0,1,0,6.191,0,15.327,15.327,0,0,0-15.478-15.478,15.668,15.668,0,0,0-15.478,15.168L120.489,67.313a14.259,14.259,0,0,0-11.144-4.643H78.7L27.312,11.593a15.5,15.5,0,0,0-21.669-.31A15.2,15.2,0,0,0,1,22.428,15.2,15.2,0,0,0,5.643,33.572l55.72,55.72a14.259,14.259,0,0,0,11.144,4.643,3.1,3.1,0,0,0,0-6.191,8.019,8.019,0,0,1-6.5-2.786l-55.72-55.72a9.755,9.755,0,0,1-3.1-6.81,8.909,8.909,0,0,1,2.786-6.5c4.024-3.405,9.6-3.405,13,.31L74.055,67A9.787,9.787,0,0,0,79.318,68.861Z" transform="translate(0 0)" fill="#262626"/>
    <path id="Path_232" data-name="Path 232" d="M135.135,64.265a2.925,2.925,0,0,0-3.1,3.1V91.816a9.121,9.121,0,0,1-9.287,9.287H85.916a9.294,9.294,0,1,1-.31-18.573h7.12a2.707,2.707,0,0,0,2.786-1.857,2.826,2.826,0,0,0-.619-3.405L52.484,34.857A6.112,6.112,0,0,0,48.15,33H30.2a3.1,3.1,0,1,0,0,6.191H48.15L85.3,76.338A15.636,15.636,0,0,0,70.128,93.364a16.072,16.072,0,0,0,16.1,13.93h36.528a15.328,15.328,0,0,0,15.478-15.478V67.361A3.1,3.1,0,0,0,135.135,64.265Z" transform="translate(54.694 54.434)" fill="#262626"/>
    <path id="Path_233" data-name="Path 233" d="M165.97,125.536v5.882a3.426,3.426,0,0,1-3.405,3.405,3.1,3.1,0,0,0,0,6.191,9.645,9.645,0,0,0,9.6-9.6v-5.882a3.1,3.1,0,1,0-6.191,0ZM5.929,11.929a2.992,2.992,0,0,0,0,4.334l6.191,6.191c.619.619,2.476,2.167,4.334,0a2.992,2.992,0,0,0,0-4.334l-6.191-6.191A2.992,2.992,0,0,0,5.929,11.929ZM24.5,30.5a2.992,2.992,0,0,0,0,4.334L49.267,59.6c.619.619,3.1,1.548,4.334,0a2.992,2.992,0,0,0,0-4.334L28.836,30.5A2.992,2.992,0,0,0,24.5,30.5Z" transform="translate(8.382 8.332)" fill="#262626"/>
  </g>
</svg>
