<svg xmlns="http://www.w3.org/2000/svg" width="209.026" height="179.692" viewBox="0 0 209.026 179.692">
  <g id="Group_37" data-name="Group 37" transform="translate(-2 -5.368)">
    <path id="Path_220" data-name="Path 220" d="M177.333,185.055a4.355,4.355,0,0,1-3.079-7.433A95.8,95.8,0,1,0,38.767,42.139a95.806,95.806,0,0,0,0,135.483,4.354,4.354,0,1,1-6.158,6.158,104.512,104.512,0,1,1,147.807-147.8,104.506,104.506,0,0,1,0,147.8,4.342,4.342,0,0,1-3.079,1.276Z" transform="translate(0 0)" fill="#262626"/>
    <path id="Path_221" data-name="Path 221" d="M42.77,24.37A21.712,21.712,0,0,0,21.432,41.876,19.994,19.994,0,0,0,21,46.143,21.773,21.773,0,1,0,42.77,24.37Zm0,34.838A13.1,13.1,0,0,1,29.706,46.143a12.4,12.4,0,0,1,1.045-5.095A13.06,13.06,0,1,1,42.77,59.208Z" transform="translate(63.729 63.746)" fill="#262626"/>
    <path id="Path_222" data-name="Path 222" d="M49.125,39.434a13.064,13.064,0,1,1-26.128,0,12.4,12.4,0,0,1,1.045-5.095,13.058,13.058,0,0,1,25.083,5.095Z" transform="translate(70.439 70.455)" fill="#fff"/>
    <path id="Path_223" data-name="Path 223" d="M65.7,52.367a4.428,4.428,0,0,1-1.685-.34l-52.069-21.9A4.355,4.355,0,0,1,15.319,22.1l52.069,21.9a4.355,4.355,0,0,1-1.69,8.37Z" transform="translate(24.759 55.119)" fill="#262626"/>
    <path id="Path_224" data-name="Path 224" d="M28.128,37.078H6.355a4.355,4.355,0,0,1,0-8.709H28.128a4.355,4.355,0,1,1,0,8.709Z" transform="translate(0 77.161)" fill="#262626"/>
    <path id="Path_225" data-name="Path 225" d="M28.489,36.208a4.342,4.342,0,0,1-3.079-1.276l-15.4-15.394A4.354,4.354,0,1,1,16.17,13.38l15.4,15.394a4.355,4.355,0,0,1-3.079,7.433Z" transform="translate(22.598 22.601)" fill="#262626"/>
    <path id="Path_226" data-name="Path 226" d="M29.355,35.851A4.355,4.355,0,0,1,25,31.5V9.723a4.355,4.355,0,0,1,8.709,0V31.5A4.355,4.355,0,0,1,29.355,35.851Z" transform="translate(77.158)" fill="#262626"/>
    <path id="Path_227" data-name="Path 227" d="M42.083,36.208A4.355,4.355,0,0,1,39,28.775L54.4,13.381a4.354,4.354,0,1,1,6.158,6.158L45.162,34.932a4.342,4.342,0,0,1-3.079,1.276Z" transform="translate(119.861 22.601)" fill="#262626"/>
    <path id="Path_228" data-name="Path 228" d="M69.128,37.078H47.355a4.355,4.355,0,0,1,0-8.709H69.128a4.355,4.355,0,0,1,0,8.709Z" transform="translate(137.542 77.161)" fill="#262626"/>
    <path id="Path_229" data-name="Path 229" d="M57.48,65.2A4.341,4.341,0,0,1,54.4,63.925L39,48.531a4.356,4.356,0,0,1,6.162-6.158L60.559,57.767A4.355,4.355,0,0,1,57.48,65.2Z" transform="translate(119.858 119.859)" fill="#262626"/>
    <g id="Group_36" data-name="Group 36" transform="translate(31.334 160.957)">
      <path id="Path_230" data-name="Path 230" d="M13.09,65.2a4.355,4.355,0,0,1-3.079-7.433l15.4-15.394a4.354,4.354,0,1,1,6.158,6.158l-15.4,15.393A4.341,4.341,0,0,1,13.09,65.2Z" transform="translate(-8.736 -41.097)" fill="#262626"/>
    </g>
  </g>
</svg>
