<svg xmlns="http://www.w3.org/2000/svg" width="33.822" height="33.3" viewBox="0 0 33.822 33.3">
  <path id="icons8-github" d="M19.911,3a16.9,16.9,0,0,0-4.1,33.3,2.468,2.468,0,0,1-.13-.822v-2.89H13.558a2.942,2.942,0,0,1-2.685-1.422c-.554-1.027-.65-2.6-2.022-3.56-.407-.32-.1-.685.372-.636a4.431,4.431,0,0,1,2.262,1.722,2.173,2.173,0,0,0,2.249,1.084,16.158,16.158,0,0,0,2.383-.171,5.3,5.3,0,0,1,2.238-2.765c-5.631-.579-8.319-3.381-8.319-7.184A6.912,6.912,0,0,1,11.919,15.1c-.389-1.325-.878-4.026.149-5.055A5.886,5.886,0,0,1,16.5,12.133a12.787,12.787,0,0,1,8.224,0,5.882,5.882,0,0,1,4.436-2.09c1.032,1.03.537,3.743.144,5.065a6.909,6.909,0,0,1,1.871,4.546c0,3.8-2.683,6.6-8.306,7.183a5.932,5.932,0,0,1,2.676,4.786v3.853a2.48,2.48,0,0,1-.049.378A16.9,16.9,0,0,0,19.911,3Z" transform="translate(-3 -3)" fill="#fff"/>
</svg>
