<svg xmlns="http://www.w3.org/2000/svg" width="24.927" height="22.728" viewBox="0 0 24.927 22.728">
  <g id="ダウンロードのアイコン素材_その2" data-name="ダウンロードのアイコン素材 その2" transform="translate(0 -22.582)">
    <path id="Path_501" data-name="Path 501" d="M149.446,36.747a.76.76,0,0,0,1.269,0l4.612-5.836a.5.5,0,0,0-.437-.88h-1.765a.872.872,0,0,1-.871-.871V23.608a1.027,1.027,0,0,0-1.026-1.026h-2.292a1.027,1.027,0,0,0-1.026,1.026v5.553a.872.872,0,0,1-.871.871h-1.765a.5.5,0,0,0-.436.881Z" transform="translate(-137.618)" fill="#fff"/>
    <path id="Path_502" data-name="Path 502" d="M24.924,207.821l-2.339-7.8H19.757L18.382,202.5h1.765l1.5,5.264H3.277l1.5-5.264H6.545L5.17,200.024H2.342L0,207.843v5.032a1.24,1.24,0,0,0,1.239,1.239h22.45a1.24,1.24,0,0,0,1.239-1.239v-2.709Z" transform="translate(0 -168.803)" fill="#fff"/>
  </g>
</svg>
