<svg id="メールの無料アイコンその10" xmlns="http://www.w3.org/2000/svg" width="41.739" height="31.5" viewBox="0 0 41.739 31.5">
  <path id="Path_503" data-name="Path 503" d="M39.708,64.829a6.919,6.919,0,0,0-4.9-2.03H6.932A6.932,6.932,0,0,0,0,69.731V87.366A6.932,6.932,0,0,0,6.932,94.3H34.806a6.932,6.932,0,0,0,6.932-6.932V69.731A6.92,6.92,0,0,0,39.708,64.829Zm-1.12,22.537a3.783,3.783,0,0,1-3.782,3.782H6.932A3.783,3.783,0,0,1,3.15,87.366V69.731a3.783,3.783,0,0,1,3.782-3.782H34.806a3.783,3.783,0,0,1,3.782,3.782V87.366Z" transform="translate(0 -62.799)" fill="#4b4b4b"/>
  <path id="Path_504" data-name="Path 504" d="M99.83,123.37,87.473,135.8a1.95,1.95,0,0,1-2.763,0l0,0L72.349,123.37l-1.34,1.333L83.364,137.13l0,0a3.841,3.841,0,0,0,5.443,0l.012-.012L101.17,124.7Z" transform="translate(-65.22 -118.432)" fill="#4b4b4b"/>
  <path id="Path_505" data-name="Path 505" d="M336.511,291.505l8.055,6.871,1.227-1.438-8.055-6.871Z" transform="translate(-309.078 -271.54)" fill="#4b4b4b"/>
  <rect id="Rectangle_14" data-name="Rectangle 14" width="1.891" height="10.588" transform="translate(6.252 26.837) rotate(-130.458)" fill="#4b4b4b"/>
</svg>
