<svg xmlns="http://www.w3.org/2000/svg" width="787.886" height="89.907" viewBox="0 0 787.886 89.907">
  <g id="アセット_1" data-name="アセット 1" transform="translate(0.009 -411.215)" style="isolation: isolate">
    <path id="Path_1" data-name="Path 1" d="M.041,165.272a2.584,2.584,0,0,1,2.84-3.072H13.428a2.735,2.735,0,0,1,2.956,2.962c.714,6.859,3.909,9.472,11.615,9.472H51.23c9,0,12.2-2.253,12.2-9.124,0-6.626-3.078-8.4-11.034-9L25.99,154.5C7.748,153.081.523,147.163.523,131.535c0-15.983,7.7-24.746,28.295-24.746H50.481c18.712,0,27.116,8.4,27.946,25.1a2.59,2.59,0,0,1-2.846,3.078H64.924a2.73,2.73,0,0,1-2.956-2.956c-.709-6.87-3.909-9.472-11.487-9.472h-21.4c-9.118,0-12.312,2.126-12.312,9.112,0,6.51,3.078,8.166,11.034,8.764l26.407,2.015c18,1.417,25.553,7.689,25.553,23.23,0,15.983-7.7,24.746-28.411,24.746H27.988C9.165,190.378.878,181.969.041,165.272Z" transform="translate(0 310.715)" fill="#040000"/>
    <path id="Path_2" data-name="Path 2" d="M15.714,149.978V135.65c0-16.459,5.448-25.925,24.508-25.925H59.875c19.061,0,24.508,9.466,24.508,25.925v14.327c0,16.929-5.448,26.285-24.508,26.285H40.222C21.162,176.263,15.714,166.907,15.714,149.978Zm43.8,11.72c7.109,0,9.24-1.893,9.24-10.065V134.21c0-8.044-2.009-9.943-9.24-9.943H40.605c-7.219,0-9.234,1.9-9.234,9.943v17.423c0,8.171,2.131,10.065,9.234,10.065Z" transform="translate(75.588 324.83)" fill="#040000"/>
    <path id="Path_3" data-name="Path 3" d="M29.831,192.622V108.684a2.683,2.683,0,0,1,2.962-2.962H42.5a2.677,2.677,0,0,1,2.956,2.962v83.938a2.683,2.683,0,0,1-2.956,2.962h-9.71a2.689,2.689,0,0,1-2.962-2.962Z" transform="translate(143.381 305.509)" fill="#040000"/>
    <path id="Path_4" data-name="Path 4" d="M34.463,157.448c0-13.5,5.093-18.468,21.2-20.123l24.862-2.486a3.729,3.729,0,0,0,3.787-4.269c0-4.855-2.131-6.272-8.287-6.272H42.75a2.677,2.677,0,0,1-2.956-2.956v-8.647a2.677,2.677,0,0,1,2.956-2.956H76.377c17.051,0,23.561,6.04,23.561,19.537v44.039a2.689,2.689,0,0,1-2.962,2.962h-9.71a2.683,2.683,0,0,1-2.956-2.962v-5.564c-3.078,5.68-7.811,8.526-18.114,8.526H59.331C43.465,176.276,34.463,170.829,34.463,157.448Zm39.312,4.739c7.811,0,10.535-2.6,10.535-10.181v-5.686l-26.047,2.608c-6.272.581-8.049,2.364-8.049,6.969,0,4.257,3.078,6.272,9,6.272Z" transform="translate(165.726 324.816)" fill="#040000"/>
    <path id="Path_5" data-name="Path 5" d="M114.427,136.019v37.3a2.689,2.689,0,0,1-2.962,2.962h-9.71a2.689,2.689,0,0,1-2.962-2.962V134.363c0-8.166-2.131-10.065-9.228-10.065H72.99c-6.388,0-9.234,1.655-9.234,10.065v38.952a2.683,2.683,0,0,1-2.962,2.962H51.1a2.683,2.683,0,0,1-2.962-2.962V112.7a2.677,2.677,0,0,1,2.962-2.956h9.7a2.677,2.677,0,0,1,2.962,2.956v4.739c2.84-4.977,8.055-7.7,17.167-7.7h9C108.864,109.739,114.427,119.089,114.427,136.019Z" transform="translate(231.37 324.816)" fill="#040000"/>
    <path id="Path_6" data-name="Path 6" d="M61.344,157.448c0-13.5,5.093-18.468,21.2-20.123l24.862-2.486a3.729,3.729,0,0,0,3.787-4.269c0-4.855-2.131-6.272-8.287-6.272H69.631a2.677,2.677,0,0,1-2.956-2.956v-8.647a2.677,2.677,0,0,1,2.956-2.956h33.626c17.051,0,23.561,6.04,23.561,19.537v44.039a2.689,2.689,0,0,1-2.962,2.962h-9.71a2.683,2.683,0,0,1-2.956-2.962v-5.564c-3.078,5.68-7.811,8.526-18.114,8.526H86.212C70.346,176.276,61.344,170.829,61.344,157.448Zm39.312,4.739c7.811,0,10.535-2.6,10.535-10.181v-5.686l-26.047,2.608c-6.272.581-8.049,2.364-8.049,6.969,0,4.257,3.078,6.272,9,6.272Z" transform="translate(294.96 324.816)" fill="#040000"/>
    <path id="Path_7" data-name="Path 7" d="M80.093,165.272a2.59,2.59,0,0,1,2.846-3.072H93.474a2.741,2.741,0,0,1,2.962,2.962c.709,6.859,3.909,9.472,11.615,9.472h23.23c9,0,12.2-2.253,12.2-9.124,0-6.626-3.078-8.4-11.034-9l-26.4-2.009c-18.23-1.423-25.455-7.341-25.455-22.969,0-15.983,7.7-24.746,28.295-24.746H130.55c18.706,0,27.11,8.4,27.935,25.1a2.584,2.584,0,0,1-2.84,3.078H144.976a2.735,2.735,0,0,1-2.962-2.956c-.709-6.87-3.9-9.472-11.482-9.472H109.1c-9.118,0-12.312,2.126-12.312,9.112,0,6.51,3.078,8.166,11.034,8.764l26.4,2.015c18,1.417,25.553,7.689,25.553,23.23,0,15.983-7.7,24.746-28.417,24.746H108.04C89.217,190.378,80.947,181.969,80.093,165.272Z" transform="translate(384.865 310.714)" fill="#040000"/>
    <path id="Path_8" data-name="Path 8" d="M149.2,109.739h9.7a2.677,2.677,0,0,1,2.962,2.956v60.62a2.683,2.683,0,0,1-2.962,2.962h-9.7a2.683,2.683,0,0,1-2.962-2.962v-4.739c-2.84,4.977-8.049,7.7-17.167,7.7h-8.642c-18.944,0-24.508-9.356-24.508-26.285V112.7a2.677,2.677,0,0,1,2.962-2.956h9.7a2.677,2.677,0,0,1,2.962,2.956v38.952c0,8.287,2.131,10.065,9.234,10.065h16.221c6.388,0,9.234-1.539,9.234-10.065V112.7a2.677,2.677,0,0,1,2.962-2.956Z" transform="translate(461.121 324.816)" fill="#040000"/>
    <path id="Path_9" data-name="Path 9" d="M109.8,119.1V108.684a2.677,2.677,0,0,1,2.956-2.962h9.7a2.683,2.683,0,0,1,2.962,2.962V119.1a2.677,2.677,0,0,1-2.962,2.956h-9.687A2.677,2.677,0,0,1,109.8,119.1Zm0,73.519V132a2.677,2.677,0,0,1,2.956-2.956h9.7A2.677,2.677,0,0,1,125.425,132v60.62a2.683,2.683,0,0,1-2.962,2.962h-9.687a2.683,2.683,0,0,1-2.974-2.962Z" transform="translate(527.845 305.509)" fill="#040000"/>
    <path id="Path_10" data-name="Path 10" d="M122.18,165.285V137.937h-4.971a2.683,2.683,0,0,1-2.962-2.956V126.81a2.683,2.683,0,0,1,2.962-2.956c8.287-.122,9.588-1.3,9.71-13.851,0-2.131,1.057-3.2,2.95-3.2h4.855a2.683,2.683,0,0,1,2.962,2.962v14.089H161.84a2.677,2.677,0,0,1,2.962,2.956v8.171a2.677,2.677,0,0,1-2.962,2.956H137.687v29.009c0,7.1,2.37,9.234,10.779,9.234h13.358a2.683,2.683,0,0,1,2.962,2.962v8.287a2.683,2.683,0,0,1-2.962,2.962H148.465C127.006,190.391,122.18,181.866,122.18,165.285Z" transform="translate(549.221 310.701)" fill="#040000"/>
    <path id="Path_11" data-name="Path 11" d="M124.339,149.978V135.65c0-16.459,5.448-25.925,24.508-25.925h16.691c19.061,0,24.508,9.466,24.508,25.925v10.657a2.677,2.677,0,0,1-2.962,2.956H139.967v2.369c0,8.171,2.131,10.065,9.234,10.065h32.558a2.683,2.683,0,0,1,2.962,2.962V173.3a2.689,2.689,0,0,1-2.962,2.962H148.847C129.787,176.263,124.339,166.907,124.339,149.978Zm50.079-12.666v-3.084c0-8.044-2.009-9.943-9.228-9.943H149.2c-7.219,0-9.234,1.9-9.234,9.943v3.084Z" transform="translate(597.815 324.83)" fill="#040000"/>
  </g>
</svg>
