<svg xmlns="http://www.w3.org/2000/svg" width="102" height="57" viewBox="0 0 102 57">
  <g id="Group_24" data-name="Group 24" transform="translate(-200 -1099)">
    <g id="Group_23" data-name="Group 23">
      <g id="Union_1" data-name="Union 1" transform="translate(202 1103)" fill="none">
        <path d="M2,53V24H52V0h48V44H57v9Z" stroke="none"/>
        <path d="M 55.99970626831055 52.00010299682617 L 55.99970626831055 43.00010299682617 L 98.99990081787109 43.00010299682617 L 98.99990081787109 0.999998152256012 L 53.00019836425781 0.999998152256012 L 53.00019836425781 25.00030517578125 L 2.999797821044922 25.00030517578125 L 2.999797821044922 52.00010299682617 L 55.99970626831055 52.00010299682617 M 56.99970626831055 53.00010299682617 L 1.999797940254211 53.00010299682617 L 1.999797940254211 24.00030517578125 L 52.00019836425781 24.00030517578125 L 52.00019836425781 -1.834920226428949e-06 L 99.99990081787109 -1.834920226428949e-06 L 99.99990081787109 44.00010299682617 L 56.99970626831055 44.00010299682617 L 56.99970626831055 53.00010299682617 Z" stroke="none" fill="#000"/>
      </g>
      <rect id="Rectangle_15" data-name="Rectangle 15" width="56" height="32" transform="translate(200 1120)"/>
      <text id="特徴" transform="translate(229 1143)" fill="#fff" font-size="20" font-family="NotoSansJP-Regular, Noto Sans JP"><tspan x="-20" y="0">特徴</tspan></text>
    </g>
    <rect id="Rectangle_16" data-name="Rectangle 16" width="44" height="44" transform="translate(254 1099)"/>
    <path id="Path_510" data-name="Path 510" d="M6.32-18.112c-.288.032-.352-.192-.64-.16-.032.224-.224.256-.288.448-.256-.032-.48.192-.608.32-.192.16-.16.448-.32.608-.16.192-.544.256-.608.448A8.145,8.145,0,0,1,3.088-15.2a9.161,9.161,0,0,0-1.536,2.464,1.065,1.065,0,0,0-.768.9,1.81,1.81,0,0,0-.768,1.088c-.192.384-.512.672-.768,1.088-.224.352-.224,1.024-.768,1.056-.1,1.472-1.184,1.92-1.248,3.392C-3.6-4.576-3.7-3.2-4.144-2.144c-.032.928-.032,1.792.928,1.7.416-.192.288-.96.32-1.536.416-.32.384-.928.608-1.408A9.521,9.521,0,0,1-1.52-4.768c.32-.192.16-.864.608-.928-.064-.992.8-1.056.768-1.984A2.464,2.464,0,0,0,.944-9.536c.736-.032.512-.992,1.056-1.216-.128-.48.512-.224.48-.608a1.132,1.132,0,0,1,.608-.608c-.16-.64.448-.48.288-1.088a4.953,4.953,0,0,0,1.7-2.3c.32-.224.928-.7.928-.928.032-.416.9-.544.608-1.056C6.288-17.408,6.576-18.016,6.32-18.112Z" transform="translate(276 1129)" fill="#fff"/>
  </g>
</svg>
