<svg xmlns="http://www.w3.org/2000/svg" width="102" height="57" viewBox="0 0 102 57">
  <g id="Group_25" data-name="Group 25" transform="translate(-200 -1232)">
    <g id="Union_2" data-name="Union 2" transform="translate(202 1236)" fill="none">
      <path d="M2,53V24H52V0h48V44H57v9Z" stroke="none"/>
      <path d="M 55.99970626831055 52.00010299682617 L 55.99970626831055 43.00010299682617 L 98.99990081787109 43.00010299682617 L 98.99990081787109 0.999998152256012 L 53.00019836425781 0.999998152256012 L 53.00019836425781 25.00030517578125 L 2.999797821044922 25.00030517578125 L 2.999797821044922 52.00010299682617 L 55.99970626831055 52.00010299682617 M 56.99970626831055 53.00010299682617 L 1.999797940254211 53.00010299682617 L 1.999797940254211 24.00030517578125 L 52.00019836425781 24.00030517578125 L 52.00019836425781 -1.834920226428949e-06 L 99.99990081787109 -1.834920226428949e-06 L 99.99990081787109 44.00010299682617 L 56.99970626831055 44.00010299682617 L 56.99970626831055 53.00010299682617 Z" stroke="none" fill="#000"/>
    </g>
    <rect id="Rectangle_19" data-name="Rectangle 19" width="56" height="32" transform="translate(200 1253)"/>
    <text id="特徴" transform="translate(229 1276)" fill="#fff" font-size="20" font-family="NotoSansJP-Regular, Noto Sans JP"><tspan x="-20" y="0">特徴</tspan></text>
    <rect id="Rectangle_22" data-name="Rectangle 22" width="44" height="44" transform="translate(254 1232)"/>
    <path id="Path_511" data-name="Path 511" d="M3.76-17.664c-.7,0-1.568.416-2.368.448-.96.7-2.272,1.024-3.232,1.7-1.056.576-2.432.832-2.912,2.016.32.544.544.928,1.28.928,1.024,0,1.984-1.056,2.56-1.248,1.344-.48,2.368-1.664,3.648-1.664a.939.939,0,0,1,.512.128c0,1.12-.768,1.5-.928,2.464-.448.192-.64.7-.928,1.088v.064c0,.032-.832.864-.928.992-.16.224-.256.544-.448.768-.16.192-.48.288-.608.448-.1.128-.064.352-.16.48A15.28,15.28,0,0,1-2.288-7.68,6.253,6.253,0,0,1-3.5-6.464c-.256.7-.672.608-1.088.928A11.637,11.637,0,0,0-5.68-4.448,8.7,8.7,0,0,0-7.824-2.912C-8.4-2.88-8.4-2.3-9.008-2.3a2.075,2.075,0,0,0-.64,1.12c0,.512,1.024.608,1.536.608,1.28,0,2.5-.192,3.584-.192h.384A9.47,9.47,0,0,1-.3-1.216a36.8,36.8,0,0,1,4.48-.64A4.381,4.381,0,0,1,6-2.3c1.536-.192,3.168-.64,4.768-.768a6.467,6.467,0,0,1,1.856-.768c.16-.064.16-.256.288-.32.384-.16,1.248-.128,1.248-.672a.625.625,0,0,0-.032-.224c-1.024.064-2.048.288-3.072.448C8.88-4.256,6.32-4.032,4.464-3.52c-2.4.512-5.344.576-8.128.9-.448-.288-1.184.224-1.536-.128.576-.64,1.376-1.088,1.984-1.7.416-.224.608-.64.928-.928A10.964,10.964,0,0,0,.464-8.288c.576-.224,1.056-1.5,1.408-1.376a13.7,13.7,0,0,1,2.144-2.784c.192-1.12,1.024-1.6,1.216-2.752-.128-.352.16-.576.16-.96v-.128C5.04-16.832,4.56-17.664,3.76-17.664Z" transform="translate(276 1263)" fill="#fff"/>
  </g>
</svg>
