<svg xmlns="http://www.w3.org/2000/svg" width="102" height="57" viewBox="0 0 102 57">
  <g id="Group_26" data-name="Group 26" transform="translate(-200 -1401)">
    <g id="Union_3" data-name="Union 3" transform="translate(202 1405)" fill="none">
      <path d="M2,53V24H52V0h48V44H57v9Z" stroke="none"/>
      <path d="M 55.99970626831055 52.00010299682617 L 55.99970626831055 43.00010299682617 L 98.99990081787109 43.00010299682617 L 98.99990081787109 0.999998152256012 L 53.00019836425781 0.999998152256012 L 53.00019836425781 25.00030517578125 L 2.999797821044922 25.00030517578125 L 2.999797821044922 52.00010299682617 L 55.99970626831055 52.00010299682617 M 56.99970626831055 53.00010299682617 L 1.999797940254211 53.00010299682617 L 1.999797940254211 24.00030517578125 L 52.00019836425781 24.00030517578125 L 52.00019836425781 -1.834920226428949e-06 L 99.99990081787109 -1.834920226428949e-06 L 99.99990081787109 44.00010299682617 L 56.99970626831055 44.00010299682617 L 56.99970626831055 53.00010299682617 Z" stroke="none" fill="#000"/>
    </g>
    <rect id="Rectangle_23" data-name="Rectangle 23" width="56" height="32" transform="translate(200 1422)"/>
    <text id="特徴" transform="translate(229 1445)" fill="#fff" font-size="20" font-family="NotoSansJP-Regular, Noto Sans JP"><tspan x="-20" y="0">特徴</tspan></text>
    <rect id="Rectangle_26" data-name="Rectangle 26" width="44" height="44" transform="translate(254 1401)"/>
    <path id="Path_512" data-name="Path 512" d="M6.544-11.776C6.9-12.96,8.112-13.6,8.112-15.264a2.2,2.2,0,0,0-1.12-2.208c-.576-.064-.64-.544-1.216-.608a13.013,13.013,0,0,0-1.5-.128,38.915,38.915,0,0,0-4.32.576,7.4,7.4,0,0,1-2.3.928.764.764,0,0,1-.672.32h-.1c-.32.832-1.088,1.152-1.088,2.272,0,.608.864,1.248,1.6,1.248.256,0,.736,0,.736-.448,0-.416-.352-.512-.352-.992,0-.352,1.312-.9,1.856-1.152a8.438,8.438,0,0,1,4-1.248,9.83,9.83,0,0,1,1.7.16c.1,0,.224.352.416.352.1,0,.192-.032.288-.032.192,0,.544.672.544,1.024,0,1.664-2.624,3.808-4.64,4.64a6.117,6.117,0,0,0-2.3.768c-.384.1-1.888.864-1.888,1.216a.288.288,0,0,0,.032.16.288.288,0,0,0-.032.16c0,.256.192.288.192.512v.1a.85.85,0,0,0,.672.192c.224,0,.48-.032.7-.032h.16a9.566,9.566,0,0,1,4.16-1.376c.48,0,1.024.192,1.6.192A1.558,1.558,0,0,0,5.616-8.7a2.057,2.057,0,0,1,.736,1.568c0,2.592-4.32,5.984-5.792,6.88A13.648,13.648,0,0,1-4.56.7,7.8,7.8,0,0,1-5.424.672C-6.288.128-7.76-.192-7.76-1.408c0-.768.48-1.024.48-1.76,0-.224-.16-.256-.288-.256-.8,0-1.344,1.312-1.344,2.08,0,2.5,1.984,3.2,2.24,3.552h.224a1.754,1.754,0,0,1,.384.128,12.468,12.468,0,0,0,1.6.128c2.336,0,3.712-.768,5.472-1.024A4.332,4.332,0,0,1,2.864.352c.224-.544.832-.7,1.216-1.088.736-.7,1.248-1.728,2.144-2.3,0-.384.256-.48.48-.608v-.128c0-.288.864-.992,1.216-1.856.032-.7.1-1.248.1-1.792a4.677,4.677,0,0,0-.1-1.12c-.416-.032-.288-.8-.512-.8-.064,0-.16.032-.224.032-.032,0-.032,0-.032-.032,0-.064.032-.16.032-.224,0-.192-.672-.352-.8-.672-.1,0-1.056-.512-1.056-.48A2.333,2.333,0,0,1,6.544-11.776Z" transform="translate(276 1432)" fill="#fff"/>
  </g>
</svg>
