<svg xmlns="http://www.w3.org/2000/svg" xmlns:xlink="http://www.w3.org/1999/xlink" width="495.526" height="431.745" viewBox="0 0 495.526 431.745">
  <defs>
    <linearGradient id="linear-gradient" x1="0.084" y1="1.024" x2="0.881" y2="-0.034" gradientUnits="objectBoundingBox">
      <stop offset="0.08" stop-color="#9945ff"/>
      <stop offset="0.3" stop-color="#8752f3"/>
      <stop offset="0.5" stop-color="#5497d5"/>
      <stop offset="0.6" stop-color="#43b4ca"/>
      <stop offset="0.72" stop-color="#28e0b9"/>
      <stop offset="0.97" stop-color="#19fb9b"/>
    </linearGradient>
  </defs>
  <path id="solanaLogoMark" d="M492.974,340.4l-81.8,85.465a19,19,0,0,1-6.321,4.348,19.422,19.422,0,0,1-7.576,1.532H9.5a9.681,9.681,0,0,1-5.208-1.515,9.317,9.317,0,0,1-3.5-4.049,9.032,9.032,0,0,1-.649-5.256,9.162,9.162,0,0,1,2.416-4.743l81.863-85.465a19,19,0,0,1,6.3-4.34,19.425,19.425,0,0,1,7.554-1.54H486.029a9.687,9.687,0,0,1,5.208,1.515,9.356,9.356,0,0,1,3.5,4.049,9.043,9.043,0,0,1,.648,5.257A9.172,9.172,0,0,1,492.974,340.4Zm-81.8-172.1a19,19,0,0,0-6.321-4.348,19.43,19.43,0,0,0-7.576-1.531H9.5a9.677,9.677,0,0,0-5.208,1.515,9.319,9.319,0,0,0-3.5,4.049,9.034,9.034,0,0,0-.649,5.257,9.166,9.166,0,0,0,2.416,4.743l81.863,85.465a19,19,0,0,0,6.3,4.34,19.425,19.425,0,0,0,7.554,1.54H486.029a9.683,9.683,0,0,0,5.208-1.515,9.354,9.354,0,0,0,3.5-4.049,9.045,9.045,0,0,0,.648-5.257,9.175,9.175,0,0,0-2.414-4.743ZM9.5,106.908H397.275a19.431,19.431,0,0,0,7.576-1.532,19,19,0,0,0,6.321-4.348l81.8-85.465a9.172,9.172,0,0,0,2.414-4.743,9.043,9.043,0,0,0-.648-5.257,9.353,9.353,0,0,0-3.5-4.049A9.685,9.685,0,0,0,486.029,0H98.271a19.427,19.427,0,0,0-7.554,1.54,19,19,0,0,0-6.3,4.34L2.574,91.345A9.163,9.163,0,0,0,.16,96.082,9.034,9.034,0,0,0,.8,101.335a9.316,9.316,0,0,0,3.493,4.05A9.681,9.681,0,0,0,9.5,106.908Z" fill="url(#linear-gradient)"/>
</svg>
