<svg xmlns="http://www.w3.org/2000/svg" width="35.346" height="35.066" viewBox="0 0 35.346 35.066">
  <g id="_4213409-backup-data-database-server-storage_115373" data-name="4213409-backup-data-database-server-storage_115373" transform="translate(-1 -2)">
    <path id="Path_14274" data-name="Path 14274" d="M1,12.1H36.346V2H1ZM3.244,4.244H34.1v5.61H3.244Z"/>
    <path id="Path_14275" data-name="Path 14275" d="M1,56.1H36.346V46H1Zm2.244-7.855H34.1v5.61H3.244Z" transform="translate(0 -31.657)"/>
    <path id="Path_14276" data-name="Path 14276" d="M1,101.1H36.346V91H1Zm2.244-7.855H34.1v5.61H3.244Z" transform="translate(0 -64.033)"/>
    <rect id="Rectangle_985" data-name="Rectangle 985" width="2" height="2" transform="translate(5 6)"/>
    <rect id="Rectangle_986" data-name="Rectangle 986" width="3" height="2" transform="translate(9 6)"/>
    <rect id="Rectangle_987" data-name="Rectangle 987" width="2" height="2" transform="translate(14 6)"/>
    <rect id="Rectangle_988" data-name="Rectangle 988" width="2" height="2" transform="translate(5 18)"/>
    <rect id="Rectangle_989" data-name="Rectangle 989" width="3" height="2" transform="translate(9 18)"/>
    <rect id="Rectangle_990" data-name="Rectangle 990" width="2" height="2" transform="translate(14 18)"/>
    <rect id="Rectangle_991" data-name="Rectangle 991" width="2" height="2" transform="translate(5 31)"/>
    <rect id="Rectangle_992" data-name="Rectangle 992" width="3" height="2" transform="translate(9 31)"/>
    <rect id="Rectangle_993" data-name="Rectangle 993" width="2" height="2" transform="translate(14 31)"/>
  </g>
</svg>
